999
"DXF R12 Output" (www.mydxf.blogspot.com)
 0 
SECTION
 2 
HEADER
 9 
$ACADVER
 1 
AC1009
 9 
$EXTMIN
 10 
 0 
 20 
 0 
 9 
$EXTMAX
 10 
 8.5 
 20 
 11 
 0 
ENDSEC
 0 
SECTION
 2 
ENTITIES
0
POLYLINE
8
Layer 1
62
7
70
1
10
0.000000
20
0.000000
66
1
0
VERTEX
8
Layer 1
10
25.250015
20
227.517722
70
0
0
VERTEX
8
Layer 1
10
25.250015
20
222.517694
70
0
0
VERTEX
8
Layer 1
10
75.250052
20
222.517694
70
0
0
VERTEX
8
Layer 1
10
75.250052
20
227.517722
70
0
0
VERTEX
8
Layer 1
10
25.250015
20
227.517722
70
0
0
SEQEND
8
Layer 1
0
POLYLINE
8
Layer 1
62
7
70
0
10
0.000000
20
0.000000
66
1
0
VERTEX
8
Layer 1
10
60.500086
20
226.568079
70
0
0
VERTEX
8
Layer 1
10
61.103419
20
226.446260
70
0
0
VERTEX
8
Layer 1
10
61.596105
20
226.114072
70
0
0
VERTEX
8
Layer 1
10
61.928281
20
225.621379
70
0
0
VERTEX
8
Layer 1
10
62.050087
20
225.018043
70
0
0
VERTEX
8
Layer 1
10
61.788857
20
224.156886
70
0
0
VERTEX
8
Layer 1
10
61.093216
20
223.585993
70
0
0
VERTEX
8
Layer 1
10
60.197641
20
223.497793
70
0
0
VERTEX
8
Layer 1
10
59.403998
20
223.922015
70
0
0
VERTEX
8
Layer 1
10
58.979794
20
224.715668
70
0
0
VERTEX
8
Layer 1
10
59.068015
20
225.611241
70
0
0
VERTEX
8
Layer 1
10
59.638923
20
226.306868
70
0
0
VERTEX
8
Layer 1
10
60.500086
20
226.568079
70
0
0
VERTEX
8
Layer 1
10
60.500086
20
226.568079
70
0
0
SEQEND
8
Layer 1
0
POLYLINE
8
Layer 1
62
7
70
0
10
0.000000
20
0.000000
66
1
0
VERTEX
8
Layer 1
10
40.000051
20
226.490891
70
0
0
VERTEX
8
Layer 1
10
40.593224
20
226.372902
70
0
0
VERTEX
8
Layer 1
10
41.096092
20
226.036896
70
0
0
VERTEX
8
Layer 1
10
41.432098
20
225.534029
70
0
0
VERTEX
8
Layer 1
10
41.550087
20
224.940856
70
0
0
VERTEX
8
Layer 1
10
41.288859
20
224.079702
70
0
0
VERTEX
8
Layer 1
10
40.593224
20
223.508809
70
0
0
VERTEX
8
Layer 1
10
39.697654
20
223.420603
70
0
0
VERTEX
8
Layer 1
10
38.904010
20
223.844815
70
0
0
VERTEX
8
Layer 1
10
38.479799
20
224.638458
70
0
0
VERTEX
8
Layer 1
10
38.568005
20
225.534029
70
0
0
VERTEX
8
Layer 1
10
39.138897
20
226.229663
70
0
0
VERTEX
8
Layer 1
10
40.000051
20
226.490891
70
0
0
VERTEX
8
Layer 1
10
40.000051
20
226.490891
70
0
0
SEQEND
8
Layer 1
0
POLYLINE
8
Layer 1
62
7
70
0
10
0.000000
20
0.000000
66
1
0
VERTEX
8
Layer 1
10
30.000065
20
226.490891
70
0
0
VERTEX
8
Layer 1
10
30.603397
20
226.369072
70
0
0
VERTEX
8
Layer 1
10
31.096083
20
226.036884
70
0
0
VERTEX
8
Layer 1
10
31.428259
20
225.544191
70
0
0
VERTEX
8
Layer 1
10
31.550065
20
224.940856
70
0
0
VERTEX
8
Layer 1
10
31.288835
20
224.079698
70
0
0
VERTEX
8
Layer 1
10
30.593194
20
223.508806
70
0
0
VERTEX
8
Layer 1
10
29.697619
20
223.420606
70
0
0
VERTEX
8
Layer 1
10
28.903976
20
223.844827
70
0
0
VERTEX
8
Layer 1
10
28.479773
20
224.638480
70
0
0
VERTEX
8
Layer 1
10
28.567993
20
225.534053
70
0
0
VERTEX
8
Layer 1
10
29.138901
20
226.229680
70
0
0
VERTEX
8
Layer 1
10
30.000065
20
226.490891
70
0
0
VERTEX
8
Layer 1
10
30.000065
20
226.490891
70
0
0
SEQEND
8
Layer 1
0
POLYLINE
8
Layer 1
62
7
70
0
10
0.000000
20
0.000000
66
1
0
VERTEX
8
Layer 1
10
70.500073
20
226.568079
70
0
0
VERTEX
8
Layer 1
10
71.093246
20
226.450090
70
0
0
VERTEX
8
Layer 1
10
71.596114
20
226.114084
70
0
0
VERTEX
8
Layer 1
10
71.932119
20
225.611216
70
0
0
VERTEX
8
Layer 1
10
72.050109
20
225.018043
70
0
0
VERTEX
8
Layer 1
10
71.788881
20
224.156889
70
0
0
VERTEX
8
Layer 1
10
71.093246
20
223.585997
70
0
0
VERTEX
8
Layer 1
10
70.197676
20
223.497791
70
0
0
VERTEX
8
Layer 1
10
69.404032
20
223.922002
70
0
0
VERTEX
8
Layer 1
10
68.979820
20
224.715646
70
0
0
VERTEX
8
Layer 1
10
69.068026
20
225.611216
70
0
0
VERTEX
8
Layer 1
10
69.638919
20
226.306851
70
0
0
VERTEX
8
Layer 1
10
70.500073
20
226.568079
70
0
0
VERTEX
8
Layer 1
10
70.500073
20
226.568079
70
0
0
SEQEND
8
Layer 1
 0 
ENDSEC
 0 
EOF